<svg width="250" height="308" viewBox="0 0 250 308" fill="none" xmlns="http://www.w3.org/2000/svg">
<path d="M107.499 0.0400391L100.849 17.16L89.3792 44.78L76.6492 75.36L59.6192 116.01C58.6092 115.71 57.6892 115.2 56.8392 114.5C56.5392 114.25 56.3392 113.94 56.2292 113.56L54.7492 108.13C54.6392 107.73 54.6992 107.36 54.9092 107.02C56.1292 105.05 55.6892 103.48 53.5892 102.31C53.2392 102.11 53.1392 101.83 53.3192 101.46C53.7992 100.45 53.6092 99.5201 52.7592 98.6801C52.5092 98.4301 52.4392 98.0601 52.5892 97.7401C52.9092 97.0601 52.9192 96.3701 52.6292 95.6801C52.4692 95.3001 52.5892 95.1 52.9992 95.09C54.0592 95.07 54.8192 94.4 55.2992 93.1C55.5392 92.43 55.6092 91.77 55.5092 91.11C55.4192 90.55 55.5692 90.05 55.9592 89.61C56.1592 89.39 56.1692 89.15 56.0092 88.89C55.9092 88.74 55.8692 88.58 55.8892 88.4C55.9092 88.15 55.8692 88.14 55.7392 88.36C55.6692 88.48 55.5692 88.57 55.4192 88.62C55.0992 88.73 54.8892 88.62 54.7992 88.29C54.7492 88.08 54.6292 87.93 54.4392 87.82C54.3892 87.8 54.3692 87.82 54.3792 87.87C54.3992 88.02 54.3492 88.13 54.2392 88.2C53.9792 88.41 53.8092 88.34 53.7492 88.01L53.0792 84.66C53.0392 84.49 53.0092 84.39 52.9892 84.38C52.9092 84.31 52.8292 84.24 52.7392 84.17C52.3792 83.86 52.1292 83.93 51.9992 84.38C51.8892 84.76 51.7192 85.1 51.4692 85.41C51.1992 85.73 51.1592 86.0801 51.3492 86.4601C51.7992 87.3701 51.6392 88.12 50.8592 88.69C50.7292 88.79 50.5992 88.7801 50.4792 88.6801C50.3692 88.5801 50.3292 88.48 50.3392 88.37C50.4092 87.78 50.3092 87.7501 50.0192 88.2701C49.4092 89.4001 48.7692 90.51 48.0992 91.6C47.7992 92.1 47.4992 92.09 47.2192 91.58C46.7292 90.68 46.2592 89.8 45.7992 88.95C45.5492 88.49 45.3592 88.5101 45.2292 89.0201C45.1492 89.3401 44.7092 89.23 43.9292 88.67C43.5892 88.42 43.3592 88.05 43.2892 87.63C43.2192 87.17 43.1292 86.7 43.0292 86.22C42.8792 85.5 42.7392 85.5 42.5992 86.22C42.5692 86.38 42.4792 86.52 42.3492 86.62C42.0392 86.84 41.8592 86.76 41.8092 86.39L40.6792 77.35C40.6292 76.95 40.6792 76.58 40.8492 76.22C41.3192 75.18 41.3492 74.05 40.9492 72.83C40.8192 72.44 40.8292 72.02 40.9592 71.63C41.0992 71.22 41.3092 70.8501 41.5792 70.5201C41.7292 70.3201 41.7092 70.04 41.5192 69.88C41.2592 69.65 41.0792 69.64 40.9592 69.84C40.6792 70.33 40.5192 70.29 40.4892 69.73C40.4292 68.67 40.1092 67.71 39.5392 66.84C39.5292 66.82 39.4992 66.81 39.4792 66.82C39.4592 66.83 39.4492 66.86 39.4592 66.88C39.5192 67.04 39.4892 67.19 39.3892 67.3C39.2392 67.47 38.9692 67.49 38.7992 67.34C38.7292 67.28 38.6792 67.19 38.6592 67.09C38.5892 66.64 38.3292 66.37 37.8792 66.26C36.9392 66.05 36.8092 65.6 37.4992 64.91L37.7692 64.64C38.0892 64.31 38.1292 63.96 37.8792 63.58C37.5292 63.04 37.5492 62.49 37.9292 61.95C38.2292 61.52 38.6292 61.42 39.0992 61.65C39.3392 61.77 39.5392 61.63 39.6892 61.23C39.7592 61.04 39.7792 60.83 39.7292 60.64C39.2292 58.65 39.3192 57.17 40.0092 56.23L46.3492 56.06C46.8992 56.04 47.0992 55.78 46.9292 55.26C46.4892 53.85 46.8692 52.54 48.0692 51.32C48.6092 50.77 48.8592 50.88 48.7992 51.65C48.6992 52.94 49.2892 53.69 50.5692 53.91C51.2292 54.03 51.4292 53.77 51.1792 53.16C50.6592 51.88 50.7792 50.64 51.5292 49.44C51.6792 49.2 51.8892 49.07 52.1692 49.06C52.2192 49.06 52.2592 49.07 52.2792 49.12C52.5292 49.65 52.7692 49.65 53.0192 49.12C54.3492 46.38 55.6092 43.57 56.7992 40.7C56.8692 40.52 56.9992 40.38 57.1692 40.29C57.5992 40.04 57.7692 40.16 57.6792 40.65C57.6592 40.77 57.6492 40.87 57.6392 40.97C57.5792 41.56 57.7092 41.6 58.0392 41.11L58.2892 40.7101C58.6592 40.1501 58.8892 40.2 58.9792 40.87C58.9992 41.04 58.9992 41.22 58.9792 41.41C58.8792 42.12 58.9792 42.03 59.2492 41.15C59.3292 40.9 59.4792 40.7 59.6792 40.54C59.8392 40.43 60.0492 40.47 60.1592 40.62C60.1892 40.67 60.2192 40.73 60.2192 40.78C60.2392 40.94 60.2292 41.0901 60.2092 41.2401C60.0992 42.0801 60.2092 42.08 60.5292 41.25C60.6892 40.82 60.8892 40.41 61.1192 40C61.4092 39.5 61.8092 39.38 62.3192 39.65C62.4492 39.72 62.5892 39.73 62.7292 39.7C63.3692 39.53 63.7092 39.77 63.7292 40.44C63.7992 42.28 64.0092 44.02 64.3392 45.66C64.4792 46.32 64.5892 46.32 64.6592 45.65C64.7092 45.26 64.8692 44.91 65.1392 44.6C65.3192 44.39 65.4792 44.41 65.6092 44.65C65.7692 44.94 65.8192 45.26 65.7792 45.61C65.6992 46.38 65.7592 46.38 65.9692 45.63C66.0292 45.42 66.0992 45.2 66.1892 44.97C66.3792 44.54 66.5992 44.52 66.8592 44.92C66.9992 45.14 67.0392 45.37 66.9792 45.61C66.7992 46.34 66.8492 46.35 67.1292 45.66C67.6492 44.38 68.0392 43.0801 68.3192 41.7401C68.4392 41.1801 68.6492 41.13 68.9792 41.6C69.2392 41.99 69.2792 42.36 69.0892 42.73C68.7392 43.42 68.7892 43.45 69.2392 42.82C69.4492 42.51 69.6592 42.19 69.8492 41.86C70.0092 41.58 70.1092 41.27 70.1592 40.92C70.3992 38.97 70.5792 37.01 70.7192 35.05C70.0892 35.05 70.0392 33.54 70.5592 30.55C70.6392 30.06 70.5092 29.99 70.1492 30.35C70.0592 30.45 69.9492 30.45 69.8192 30.36C69.6692 30.26 69.6092 30.12 69.6492 29.94C70.0992 27.66 70.2292 25.39 70.0492 23.15C69.8892 21.13 69.8592 19.0001 69.9892 16.7701C70.3092 11.2701 70.1992 5.77003 69.6392 0.280029L107.519 0.0600281L107.499 0.0400391Z" fill="#08B59C"/>
<path d="M194.139 0.51001C193.869 1.20001 194.019 1.71002 194.589 2.02002C195.079 2.29002 195.129 2.60002 194.749 2.93002C194.539 3.13002 194.509 3.35002 194.659 3.61002C195.459 4.92002 194.959 6.43001 195.649 7.70001C196.799 9.81001 197.709 11.96 198.389 14.14C198.949 15.93 200.049 17.28 200.699 18.95C201.189 20.19 201.759 21.4 202.419 22.56C204.789 26.67 206.959 30.69 208.949 34.6C210.739 38.14 212.799 41.72 215.139 45.36C217.359 48.81 219.499 52.37 221.559 56.04C222.099 56.23 222.399 56.61 222.439 57.19C222.509 58.34 223.089 59.18 224.199 59.71C224.679 59.95 225.039 60.37 225.179 60.88C225.579 62.38 226.319 63.72 227.409 64.9C228.139 65.69 228.809 66.52 229.409 67.37C231.439 70.23 233.479 73.16 235.539 76.15C235.959 76.76 235.759 77.61 235.109 78.06C235.089 78.07 235.079 78.08 235.059 78.09C234.689 78.32 235.129 78.95 236.379 79.98C226.419 103.84 216.539 127.7 206.719 151.57C206.199 152.86 206.179 153.82 206.139 155.16C206.219 156.4 206.049 156.86 205.629 156.53C205.309 156.28 204.849 156.34 204.609 156.65C204.569 156.7 204.529 156.76 204.509 156.82L192.029 186.36C192.129 184.87 191.589 183.51 190.409 182.29C190.119 181.99 189.879 181.65 189.679 181.28L188.039 178.1C188.009 178.03 188.009 177.97 188.039 177.9C188.099 177.8 188.109 177.7 188.059 177.6C186.649 174.05 185.019 170.73 183.179 167.65C182.969 167.32 182.879 166.96 182.879 166.56C182.879 166.34 182.829 166.13 182.719 165.94C180.669 162.46 178.789 159.09 177.089 155.81C175.079 151.94 173.199 148.04 171.459 144.11C170.959 142.98 170.169 141.79 169.109 140.54C168.239 139.53 167.399 138.43 166.559 137.25C165.839 136.24 165.409 135.12 165.249 133.89C165.089 132.62 164.499 131.51 163.509 130.56C163.209 130.29 163.019 129.96 162.929 129.57C162.689 128.53 162.109 127.75 161.199 127.22C160.619 126.89 160.329 126.39 160.329 125.72V124.42C160.329 123.96 159.999 123.56 159.539 123.48C158.529 123.3 158.099 122.68 158.249 121.64C158.309 121.23 158.199 120.87 157.919 120.56C155.989 118.48 154.949 115.97 154.799 113.03C154.799 112.94 154.769 112.85 154.729 112.77L152.269 108.49C152.059 108.13 151.779 107.83 151.439 107.59C151.099 107.34 150.809 107.05 150.549 106.7C150.249 106.3 150.099 105.85 150.089 105.35C150.089 104.58 149.749 104.02 149.059 103.68C148.759 103.54 148.599 103.3 148.579 102.98C148.499 101.97 147.979 101.27 147.029 100.89C146.579 100.72 146.259 100.41 146.069 99.98C145.189 98.03 144.479 96.02 143.939 93.96C143.729 93.13 143.409 92.37 142.999 91.67C142.549 90.91 142.169 90.1 141.859 89.22C141.529 88.25 141.039 87.38 140.399 86.61C139.749 85.83 139.279 84.86 138.999 83.7C138.889 83.27 138.679 82.9 138.359 82.6L135.319 79.74C135.099 79.53 134.999 79.26 135.039 78.95C135.089 78.41 134.849 78.02 134.319 77.79C133.999 77.64 133.809 77.39 133.759 77.05C133.589 75.85 133.129 74.7 132.379 73.58C132.189 73.28 131.919 73.09 131.579 73.01C130.969 72.87 130.699 72.48 130.759 71.85C130.809 71.4 130.739 70.98 130.559 70.58C130.109 69.62 129.579 69.21 129.189 68.13C127.969 64.86 126.719 61.67 125.439 58.57C124.759 56.93 123.469 55.84 122.759 54.23C120.959 50.22 118.609 46.1 115.699 41.87C113.679 38.93 111.849 36.01 110.209 33.12C109.219 31.36 108.349 29.66 107.599 28.01C106.809 26.25 105.869 24.56 104.789 22.95C103.819 21.49 103.169 19.88 102.839 18.1C102.759 17.65 102.489 17.4 102.049 17.32L100.829 17.12L107.479 0L194.129 0.470001L194.139 0.51001Z" fill="#26D7DE"/>
<path d="M69.6092 0.259766C70.1592 5.75977 70.2792 11.2598 69.9592 16.7498C69.8392 18.9798 69.8592 21.1098 70.0192 23.1298C70.1992 25.3698 70.0692 27.6298 69.6192 29.9198C69.5892 30.0998 69.6392 30.2398 69.7892 30.3398C69.9192 30.4298 70.0292 30.4298 70.1192 30.3298C70.4692 29.9698 70.6092 30.0298 70.5292 30.5298C70.0092 33.5198 70.0592 35.0198 70.6892 35.0298C70.5592 36.9898 70.3692 38.9497 70.1292 40.8997C70.0792 41.2497 69.9792 41.5598 69.8192 41.8398C69.6292 42.1698 69.4292 42.4898 69.2092 42.7998C68.7592 43.4298 68.7192 43.4098 69.0592 42.7098C69.2492 42.3498 69.2092 41.9698 68.9492 41.5798C68.6292 41.1098 68.4092 41.1598 68.2892 41.7198C68.0192 43.0598 67.6192 44.3598 67.0992 45.6398C66.8192 46.3298 66.7692 46.3198 66.9492 45.5898C67.0092 45.3498 66.9692 45.1197 66.8292 44.8997C66.5692 44.4997 66.3492 44.5198 66.1592 44.9498C66.0692 45.1698 65.9992 45.3898 65.9392 45.6098C65.7292 46.3598 65.6692 46.3498 65.7492 45.5898C65.7892 45.2398 65.7292 44.9098 65.5792 44.6298C65.4492 44.3898 65.2892 44.3698 65.1092 44.5798C64.8392 44.8898 64.6792 45.2398 64.6292 45.6298C64.5592 46.2998 64.4492 46.2998 64.3092 45.6398C63.9792 43.9998 63.7792 42.2598 63.6992 40.4198C63.6792 39.7498 63.3392 39.5098 62.6992 39.6798C62.5592 39.7098 62.4192 39.6998 62.2892 39.6298C61.7792 39.3598 61.3792 39.4698 61.0892 39.9798C60.8592 40.3798 60.6592 40.7998 60.4992 41.2298C60.1792 42.0598 60.0692 42.0598 60.1792 41.2198C60.1992 41.0698 60.2092 40.9198 60.1892 40.7598C60.1692 40.5698 59.9992 40.4298 59.8092 40.4498C59.7492 40.4498 59.6893 40.4798 59.6493 40.5098C59.4393 40.6698 59.2992 40.8698 59.2192 41.1198C58.9392 41.9998 58.8492 42.0898 58.9492 41.3798C58.9692 41.1898 58.9692 41.0098 58.9492 40.8398C58.8592 40.1698 58.6293 40.1198 58.2593 40.6798L58.0093 41.0798C57.6893 41.5698 57.5592 41.5298 57.6092 40.9398C57.6092 40.8398 57.6293 40.7298 57.6493 40.6198C57.7393 40.1298 57.5692 40.0098 57.1392 40.2598C56.9692 40.3498 56.8392 40.4898 56.7692 40.6698C55.5692 43.5398 54.3092 46.3498 52.9892 49.0898C52.7392 49.6198 52.4992 49.6198 52.2492 49.0898C52.2292 49.0398 52.1892 49.0198 52.1392 49.0298C51.8592 49.0498 51.6492 49.1698 51.4992 49.4098C50.7492 50.6098 50.6293 51.8498 51.1493 53.1298C51.4093 53.7498 51.1992 53.9998 50.5392 53.8798C49.2592 53.6598 48.6692 52.8998 48.7692 51.6198C48.8292 50.8498 48.5792 50.7298 48.0392 51.2898C46.8392 52.5098 46.4693 53.8198 46.8993 55.2298C47.0593 55.7498 46.8692 56.0198 46.3192 56.0298L39.9792 56.1998C40.7792 55.0598 40.8492 53.9198 40.1992 52.7798C40.1592 52.7098 40.0993 52.6898 40.0093 52.6898C39.8793 52.6898 39.7792 52.7498 39.7092 52.8398C39.3592 53.3098 39.1892 53.2498 39.1892 52.6698C39.1892 52.4598 39.1392 52.2698 39.0292 52.0798C38.9792 51.9798 38.9092 51.9698 38.8292 52.0598L38.4592 52.4298C38.1592 52.7298 37.9692 52.6698 37.8892 52.2398C37.7392 51.2798 37.9592 50.4598 38.5292 49.7798C38.5792 49.7198 38.5693 49.6798 38.5093 49.6598L35.9892 48.5098C35.6992 48.3798 35.4892 48.4598 35.3492 48.7398L34.0093 51.5498C33.9593 51.6498 33.9593 51.7498 34.0093 51.8498C34.0693 51.9898 34.1592 52.0598 34.2892 52.0698C34.7692 52.1098 34.8292 52.2998 34.4892 52.6398C34.3692 52.7598 34.2792 52.8898 34.2292 53.0498C34.0892 53.4798 33.7892 53.6998 33.3392 53.7098C33.0092 53.7098 32.7092 53.6398 32.4492 53.4898C32.0992 53.2898 31.9092 52.9998 31.8892 52.5998C31.8092 51.1098 31.0792 50.1798 29.7092 49.8198C29.2092 49.6898 29.0792 49.3998 29.3392 48.9398C29.5992 48.4898 29.6692 48.0198 29.5592 47.5198C29.4892 47.1998 29.2992 47.1098 28.9992 47.2498C28.6992 47.3998 28.4692 47.3198 28.3092 47.0298C28.0992 46.6398 27.9792 46.6698 27.9592 47.0998C27.9592 47.2398 27.8892 47.3498 27.7892 47.4198C27.4292 47.6798 27.1693 47.5998 27.0093 47.1898C26.4593 45.8098 26.4092 44.4798 26.8692 43.1798C27.0192 42.7798 27.0292 42.3598 26.9192 41.9198C26.8492 41.6498 26.7592 41.3898 26.6692 41.1398C26.4392 40.5098 26.1492 40.4898 25.7992 41.0698L24.6292 43.0398C24.4992 43.2498 24.3292 43.2897 24.1192 43.1497C23.9992 43.0797 23.9492 42.9798 23.9492 42.8498C23.9692 42.1298 23.7992 42.0798 23.4292 42.6898C22.4392 44.3098 21.4892 45.8798 20.5692 47.4298C20.4892 47.5698 20.3592 47.6198 20.1992 47.5898C20.1392 47.5898 20.1092 47.5498 20.0992 47.4898C20.0092 47.0398 19.7992 47.0098 19.4792 47.3798C18.7492 48.1998 18.0592 49.0198 17.4292 49.8498C17.1492 50.2198 17.2392 50.3798 17.6892 50.3198C17.8992 50.2998 18.0692 50.3698 18.2092 50.5398C18.4792 50.8398 18.4392 51.0998 18.0892 51.3098C17.4992 51.6498 17.2792 52.2098 17.4492 52.9898C17.5292 53.3898 17.7092 53.4398 17.9692 53.1098C18.0392 53.0198 18.1592 52.9898 18.3192 53.0398C18.7692 53.1598 18.9993 53.4398 19.0093 53.9098C19.0493 54.8598 19.2492 55.8598 19.5992 56.9098C19.6492 57.0698 19.6292 57.2298 19.5492 57.3698C19.4292 57.5798 19.2692 57.7498 19.0592 57.8798C19.0092 57.9098 18.9892 57.9798 19.0292 58.0298C19.0292 58.0398 19.0492 58.0498 19.0592 58.0598C19.4092 58.3298 19.7892 58.4798 20.1992 58.5098C21.7892 58.5998 22.0293 59.2198 20.8993 60.3798C20.3093 60.9798 19.8193 61.6198 19.3993 62.3098C19.2793 62.4998 19.1292 62.5398 18.9292 62.4298L18.5792 62.2398C18.1892 62.0298 17.6892 62.1598 17.4492 62.5498L16.9092 63.4598C16.8492 63.5398 16.8692 63.5997 16.9592 63.6497L17.3192 63.8498C17.8292 64.1198 17.8692 64.4498 17.4292 64.8398C16.8792 65.3298 16.6692 65.9498 16.7992 66.7098C16.8792 67.1298 16.8293 67.5298 16.6493 67.9198C15.9193 69.4698 14.7692 69.9198 13.2292 69.2698C12.8392 69.1098 12.5192 69.1998 12.2492 69.5298L9.98925 72.3698C6.56925 64.3998 2.04924 55.0998 0.719242 47.3498C-1.56076 34.0798 1.57925 22.7098 10.1493 13.2498C15.1093 7.77976 21.0992 4.00978 28.1292 1.95978C31.6792 0.919778 37.9692 0.389751 46.9892 0.369751C54.5092 0.349751 62.0292 0.329753 69.5692 0.309753L69.6092 0.259766Z" fill="#0CE1C4"/>
<path d="M236.379 79.9903C235.129 78.9603 234.689 78.3303 235.059 78.1003C235.729 77.6803 235.959 76.8303 235.569 76.2103C235.569 76.1903 235.549 76.1802 235.539 76.1602C233.479 73.1702 231.439 70.2402 229.409 67.3802C228.809 66.5202 228.139 65.7002 227.409 64.9102C226.319 63.7302 225.579 62.3903 225.179 60.8903C225.039 60.3803 224.679 59.9502 224.199 59.7202C223.099 59.1802 222.509 58.3403 222.439 57.2003C222.399 56.6203 222.109 56.2403 221.559 56.0503C219.499 52.3703 217.359 48.8102 215.139 45.3702C212.799 41.7302 210.729 38.1503 208.949 34.6103C206.959 30.6903 204.789 26.6803 202.419 22.5703C201.759 21.4103 201.189 20.2003 200.699 18.9603C200.039 17.2903 198.939 15.9402 198.389 14.1502C197.709 11.9702 196.789 9.82027 195.649 7.71027C194.959 6.44027 195.459 4.93024 194.659 3.62024C194.499 3.36024 194.529 3.14025 194.749 2.94025C195.129 2.60025 195.079 2.30025 194.589 2.03025C194.019 1.72025 193.869 1.21027 194.139 0.520267C205.469 0.220267 212.639 0.28025 215.669 0.69025C223.739 1.81025 230.759 5.13025 236.739 10.6603C246.029 19.2703 250.279 30.0703 249.489 43.0703C249.259 46.7403 247.819 51.9103 245.189 58.5703C242.339 65.7603 239.399 72.9003 236.389 80.0103L236.379 79.9903Z" fill="#0CE1C4"/>
<path d="M100.839 17.1602L102.059 17.3602C102.509 17.4302 102.769 17.6902 102.849 18.1402C103.179 19.9102 103.829 21.5302 104.799 22.9902C105.879 24.6002 106.819 26.2802 107.609 28.0502C108.359 29.7002 109.229 31.4002 110.219 33.1602C111.859 36.0502 113.689 38.9702 115.709 41.9102C118.619 46.1502 120.969 50.2702 122.769 54.2702C123.489 55.8802 124.769 56.9702 125.449 58.6102C126.729 61.7102 127.979 64.9002 129.199 68.1702C129.599 69.2502 130.129 69.6501 130.569 70.6201C130.749 71.0201 130.819 71.4502 130.769 71.8902C130.699 72.5202 130.979 72.9102 131.589 73.0502C131.939 73.1302 132.199 73.3201 132.389 73.6201C133.139 74.7401 133.599 75.9001 133.769 77.0901C133.819 77.4401 133.999 77.6802 134.329 77.8302C134.859 78.0602 135.099 78.4502 135.049 78.9902C135.019 79.3002 135.109 79.5702 135.329 79.7802L138.369 82.6402C138.689 82.9402 138.909 83.3102 139.009 83.7402C139.289 84.8902 139.759 85.8601 140.409 86.6501C141.049 87.4201 141.539 88.2902 141.869 89.2602C142.169 90.1302 142.549 90.9502 143.009 91.7102C143.419 92.4002 143.739 93.1602 143.949 94.0002C144.489 96.0602 145.189 98.0702 146.079 100.02C146.279 100.46 146.599 100.76 147.039 100.93C147.989 101.31 148.499 102.01 148.589 103.02C148.609 103.35 148.779 103.58 149.069 103.72C149.749 104.06 150.099 104.61 150.099 105.39C150.099 105.88 150.259 106.33 150.559 106.74C150.819 107.09 151.109 107.38 151.449 107.63C151.789 107.87 152.059 108.17 152.279 108.53L154.739 112.81C154.789 112.89 154.809 112.98 154.809 113.07C154.959 116.01 155.999 118.52 157.929 120.6C158.209 120.9 158.319 121.26 158.259 121.68C158.099 122.73 158.529 123.34 159.549 123.52C160.009 123.6 160.339 124 160.339 124.46V125.76C160.339 126.43 160.629 126.93 161.209 127.26C162.119 127.79 162.699 128.57 162.939 129.61C163.029 130 163.219 130.33 163.519 130.6C164.519 131.55 165.099 132.66 165.259 133.93C165.419 135.17 165.849 136.29 166.569 137.29C167.399 138.47 168.249 139.56 169.119 140.58C170.179 141.83 170.969 143.02 171.469 144.15C173.209 148.07 175.079 151.97 177.099 155.85C178.799 159.12 180.669 162.5 182.729 165.98C182.849 166.17 182.899 166.38 182.889 166.6C182.889 167 182.979 167.36 183.189 167.69C185.039 170.77 186.659 174.09 188.069 177.64C188.109 177.74 188.099 177.84 188.049 177.94C188.019 178.01 188.019 178.07 188.049 178.14L189.689 181.32C189.889 181.69 190.129 182.03 190.419 182.33C191.599 183.55 192.139 184.91 192.039 186.4L190.749 190.21L181.719 211.66C179.769 210.89 178.059 209.32 176.579 206.97C176.179 206.33 175.839 205.65 175.579 204.94C175.439 204.57 175.209 204.26 174.899 204C174.479 203.65 174.219 203.18 174.129 202.62C174.069 202.22 173.939 201.84 173.729 201.49C171.969 198.53 170.129 195.55 168.219 192.55C167.119 190.81 166.199 188.99 165.479 187.07C164.689 184.97 163.849 183.11 162.969 181.48C161.869 179.44 160.699 177.31 159.459 175.06C158.539 173.4 157.949 171.61 157.689 169.72C157.349 167.24 156.609 164.85 155.449 162.56C155.359 162.39 155.219 162.32 155.029 162.35C154.909 162.37 154.819 162.33 154.749 162.25C154.589 162.08 154.519 161.87 154.519 161.64C154.499 160.58 153.999 159.86 153.009 159.48C152.609 159.32 152.289 159.06 152.069 158.69C150.919 156.82 149.809 154.8 148.729 152.63C148.029 151.21 146.969 150.66 146.529 149.02C146.229 147.94 145.689 147 144.899 146.2C144.609 145.91 144.409 145.57 144.309 145.19C143.909 143.75 143.279 142.38 142.409 141.07C141.769 140.11 141.019 139.35 140.159 138.81C139.059 138.1 138.499 137.05 138.449 135.66C138.429 135.03 138.169 134.53 137.649 134.15C137.469 134.02 137.319 133.85 137.199 133.66C135.069 130.07 133.199 126.12 131.609 121.82C131.469 121.43 131.239 121.1 130.929 120.83C128.999 119.14 127.719 117.05 127.079 114.55C126.209 111.15 123.949 108.91 123.189 105.38C122.799 103.59 121.959 102.04 120.659 100.72C119.429 99.4702 118.519 98.0102 117.919 96.3602C116.839 93.3802 115.489 90.5202 113.859 87.7502C113.369 86.9302 112.949 86.0802 112.569 85.2202C112.149 84.2602 111.609 83.3402 110.959 82.4902C108.079 78.6902 105.759 74.9302 103.999 71.2102C102.679 68.4502 101.189 65.8002 99.5191 63.2602C96.4291 58.5602 94.7991 53.5301 91.7791 48.8701C91.4591 48.3801 91.1891 48.1202 90.6791 47.8202C90.2491 47.5602 90.0992 47.1902 90.2292 46.7102C90.5092 45.6602 90.2292 45.0302 89.3792 44.8202L100.849 17.2002L100.839 17.1602Z" fill="#38C5E4"/>
<path d="M39.9991 56.19C39.3091 57.14 39.2091 58.61 39.7191 60.6C39.7691 60.79 39.7591 61 39.6791 61.19C39.5191 61.59 39.3291 61.73 39.0891 61.61C38.6091 61.38 38.2191 61.48 37.9191 61.91C37.5391 62.45 37.519 63 37.869 63.54C38.119 63.92 38.0791 64.27 37.7591 64.6L37.4891 64.87C36.8091 65.55 36.929 66 37.869 66.22C38.319 66.33 38.5791 66.6 38.6491 67.05C38.6891 67.28 38.8991 67.43 39.1291 67.4C39.2291 67.38 39.3091 67.34 39.3791 67.26C39.4891 67.14 39.5091 67 39.4491 66.84C39.4391 66.82 39.4491 66.79 39.4691 66.78C39.4891 66.77 39.5191 66.78 39.5291 66.8C40.1091 67.67 40.419 68.64 40.479 69.69C40.509 70.25 40.6691 70.29 40.9491 69.8C41.0691 69.59 41.2491 69.61 41.5091 69.84C41.6991 70 41.7291 70.29 41.5691 70.48C41.2991 70.81 41.0891 71.18 40.9491 71.59C40.8091 71.97 40.8091 72.4 40.9391 72.79C41.3391 74.01 41.3091 75.14 40.8391 76.18C40.6791 76.53 40.6191 76.91 40.6691 77.31L41.7991 86.35C41.8491 86.73 42.0291 86.81 42.3391 86.58C42.4691 86.48 42.5491 86.35 42.5891 86.18C42.7291 85.46 42.8691 85.46 43.0191 86.18C43.1191 86.66 43.2091 87.13 43.2791 87.59C43.3491 88.01 43.5791 88.38 43.9191 88.63C44.6991 89.18 45.1391 89.3 45.2191 88.98C45.3491 88.47 45.5391 88.44 45.7891 88.91C46.2491 89.77 46.7291 90.65 47.2091 91.54C47.4891 92.06 47.7791 92.07 48.0891 91.56C48.7591 90.47 49.3991 89.36 50.0091 88.23C50.2991 87.71 50.4091 87.74 50.3291 88.33C50.3091 88.44 50.3591 88.54 50.4691 88.64C50.5891 88.75 50.7191 88.75 50.8491 88.65C51.6291 88.08 51.7991 87.34 51.3391 86.42C51.1491 86.04 51.1891 85.69 51.4591 85.37C51.7091 85.07 51.8791 84.72 51.9891 84.34C52.1191 83.89 52.369 83.82 52.729 84.13C52.809 84.2 52.889 84.27 52.979 84.34C52.999 84.36 53.0291 84.45 53.0691 84.62L53.7391 87.97C53.8091 88.3 53.969 88.36 54.229 88.16C54.339 88.09 54.379 87.97 54.369 87.83C54.369 87.77 54.3791 87.76 54.4291 87.78C54.6191 87.89 54.7391 88.04 54.7891 88.25C54.8791 88.58 55.0891 88.69 55.4091 88.58C55.5591 88.53 55.669 88.44 55.729 88.32C55.849 88.1 55.8991 88.11 55.8791 88.36C55.8591 88.54 55.8991 88.71 55.9991 88.85C56.1591 89.11 56.1491 89.34 55.9491 89.57C55.5591 90.01 55.4091 90.51 55.4991 91.07C55.5991 91.73 55.5291 92.39 55.2891 93.06C54.8091 94.36 54.0491 95.03 52.9891 95.05C52.5791 95.07 52.449 95.26 52.619 95.64C52.919 96.33 52.8991 97.02 52.5791 97.7C52.4291 98.02 52.4991 98.39 52.7491 98.64C53.5991 99.48 53.7791 100.41 53.3091 101.42C53.1391 101.79 53.2291 102.08 53.5791 102.27C55.6791 103.44 56.1191 105.01 54.8991 106.98C54.6891 107.33 54.6291 107.7 54.7391 108.09L56.2191 113.52C56.3291 113.9 56.5291 114.21 56.8291 114.46C57.6791 115.16 58.6091 115.66 59.6091 115.97C59.1691 116.85 58.9491 117.49 58.9391 117.9C58.0691 119.49 57.2891 121.26 56.5991 123.2C53.2791 132.52 48.9191 142.3 43.5291 152.53L10.0391 72.29L12.2991 69.45C12.5591 69.12 12.8891 69.03 13.2791 69.19C14.8291 69.84 15.9691 69.39 16.6991 67.84C16.8791 67.45 16.9291 67.05 16.8491 66.63C16.7191 65.87 16.929 65.25 17.479 64.76C17.919 64.37 17.879 64.04 17.369 63.77L17.0091 63.57C16.9191 63.53 16.8991 63.47 16.9591 63.38L17.4991 62.47C17.7391 62.08 18.2291 61.95 18.6291 62.16L18.979 62.35C19.179 62.46 19.3291 62.42 19.4491 62.23C19.8591 61.55 20.3591 60.9 20.9491 60.3C22.0691 59.15 21.8391 58.52 20.2491 58.43C19.8391 58.41 19.4591 58.26 19.1091 57.98C19.0591 57.95 19.0391 57.88 19.0791 57.83C19.0791 57.82 19.0991 57.81 19.1091 57.8C19.3191 57.68 19.4891 57.51 19.5991 57.29C19.6791 57.15 19.6991 57 19.6491 56.83C19.2991 55.77 19.0991 54.77 19.0591 53.83C19.0391 53.37 18.809 53.08 18.369 52.96C18.209 52.92 18.0991 52.94 18.0191 53.03C17.7591 53.35 17.5791 53.31 17.4991 52.91C17.3391 52.13 17.5491 51.57 18.1391 51.23C18.4891 51.02 18.5391 50.77 18.2591 50.46C18.1191 50.29 17.9491 50.21 17.7391 50.24C17.2891 50.3 17.199 50.14 17.479 49.77C18.109 48.94 18.7991 48.11 19.5291 47.3C19.8491 46.93 20.0591 46.97 20.1491 47.41C20.1491 47.47 20.1891 47.5 20.2491 47.51C20.4091 47.54 20.539 47.49 20.619 47.35C21.529 45.81 22.489 44.23 23.479 42.61C23.849 42 24.0191 42.05 23.9991 42.77C23.9991 42.89 24.0591 42.99 24.1691 43.07C24.3791 43.21 24.5491 43.17 24.6791 42.96L25.8491 40.99C26.1991 40.41 26.4791 40.44 26.7191 41.06C26.8091 41.31 26.8891 41.57 26.9691 41.84C27.0891 42.29 27.0691 42.71 26.9191 43.1C26.4591 44.39 26.4991 45.73 27.0591 47.11C27.2191 47.52 27.4791 47.6 27.8391 47.34C27.9491 47.27 27.9991 47.16 28.0091 47.02C28.0291 46.58 28.1391 46.56 28.3591 46.95C28.5191 47.25 28.7591 47.32 29.0491 47.17C29.3491 47.03 29.5291 47.12 29.6091 47.44C29.7191 47.94 29.6391 48.42 29.3891 48.86C29.1291 49.31 29.2591 49.61 29.7591 49.74C31.1291 50.1 31.8491 51.03 31.9391 52.52C31.9591 52.92 32.1391 53.21 32.4991 53.41C32.7591 53.56 33.0591 53.63 33.3891 53.63C33.8391 53.63 34.1391 53.4 34.2791 52.97C34.3291 52.81 34.4191 52.68 34.5391 52.56C34.8891 52.22 34.8191 52.03 34.3391 51.99C34.2091 51.99 34.1091 51.91 34.0591 51.77C34.0091 51.67 34.0091 51.57 34.0591 51.47L35.3991 48.66C35.5391 48.37 35.7491 48.29 36.0391 48.43L38.5591 49.58C38.6291 49.6 38.6291 49.65 38.5791 49.7C37.9991 50.38 37.7891 51.2 37.9391 52.16C38.0091 52.59 38.1991 52.65 38.5091 52.35L38.8791 51.98C38.9591 51.9 39.0291 51.91 39.0791 52C39.1891 52.19 39.2391 52.39 39.2391 52.59C39.2391 53.18 39.4091 53.23 39.7591 52.76C39.8291 52.67 39.9191 52.62 40.0591 52.61C40.1391 52.61 40.1991 52.63 40.2491 52.7C40.8991 53.85 40.8291 54.99 40.0291 56.12L39.9991 56.19Z" fill="#26D7DE"/>
<path d="M89.3691 44.7803C90.2191 44.9903 90.4991 45.6203 90.2191 46.6703C90.0891 47.1503 90.2392 47.5203 90.6692 47.7803C91.1792 48.0803 91.4491 48.3403 91.7691 48.8303C94.7891 53.4903 96.4192 58.5203 99.5092 63.2203C101.179 65.7603 102.669 68.4103 103.989 71.1703C105.749 74.8903 108.069 78.6503 110.949 82.4503C111.599 83.3103 112.139 84.2203 112.559 85.1803C112.929 86.0503 113.359 86.8903 113.849 87.7103C115.469 90.4703 116.829 93.3403 117.909 96.3203C118.509 97.9803 119.429 99.4303 120.649 100.68C121.949 102 122.799 103.55 123.179 105.34C123.949 108.88 126.209 111.11 127.069 114.51C127.699 117.01 128.989 119.1 130.919 120.79C131.229 121.06 131.459 121.39 131.599 121.78C133.189 126.08 135.049 130.03 137.189 133.62C137.299 133.82 137.459 133.98 137.639 134.11C138.159 134.49 138.429 134.99 138.439 135.62C138.479 137.01 139.049 138.06 140.149 138.77C141.009 139.31 141.759 140.07 142.399 141.03C143.269 142.33 143.909 143.7 144.299 145.15C144.409 145.54 144.599 145.88 144.889 146.16C145.679 146.96 146.229 147.9 146.519 148.98C146.969 150.62 148.019 151.17 148.719 152.59C149.799 154.76 150.909 156.78 152.059 158.65C152.279 159.02 152.599 159.28 152.999 159.44C153.989 159.82 154.489 160.54 154.509 161.6C154.509 161.83 154.589 162.03 154.739 162.21C154.809 162.29 154.909 162.33 155.019 162.31C155.209 162.28 155.349 162.35 155.439 162.52C156.589 164.81 157.339 167.2 157.679 169.68C157.939 171.58 158.519 173.36 159.449 175.02C160.689 177.26 161.859 179.4 162.959 181.44C163.839 183.06 164.679 184.93 165.469 187.03C166.199 188.94 167.109 190.77 168.209 192.51C170.119 195.51 171.959 198.49 173.719 201.45C173.929 201.8 174.059 202.17 174.119 202.58C174.209 203.15 174.469 203.61 174.889 203.96C175.199 204.22 175.429 204.53 175.569 204.9C175.829 205.61 176.169 206.28 176.569 206.93C178.049 209.28 179.769 210.84 181.709 211.62L169.609 240.64L167.819 245.12C167.339 244.23 167.049 243.35 166.949 242.49C166.899 242.04 167.079 241.74 167.489 241.58C167.809 241.46 168.119 241.49 168.399 241.67C168.779 241.92 168.839 241.86 168.589 241.48C168.509 241.36 168.439 241.24 168.379 241.11C168.139 240.55 167.859 240.52 167.539 241.04C167.409 241.25 167.249 241.28 167.059 241.11C166.919 240.98 166.799 240.83 166.709 240.66C165.489 238.45 164.269 236.24 163.049 234.03C162.669 233.34 162.229 232.73 161.739 232.2C161.149 231.57 160.889 230.82 160.959 229.93C160.999 229.51 160.899 229.13 160.659 228.78C159.039 226.39 157.499 224.07 156.019 221.82C154.909 220.15 154.539 218.44 154.099 216.54C153.989 216.05 153.749 215.65 153.359 215.34L152.569 214.7C152.219 214.42 151.959 214.07 151.769 213.66C150.589 211.04 149.349 208.55 148.039 206.19C145.359 201.36 142.839 196.45 140.489 191.46C139.139 188.59 137.679 185.88 136.129 183.34C134.529 180.73 132.959 178.06 131.429 175.34C131.369 175.24 131.329 175.14 131.309 175.03C131.289 174.91 131.289 174.8 131.309 174.68C131.369 174.19 131.219 173.77 130.879 173.42C129.739 172.27 128.929 171.03 128.459 169.72C127.759 167.82 126.859 165.99 125.759 164.23C122.129 158.44 118.999 152.46 116.349 146.31C116.179 145.91 115.719 145.51 115.349 145.3C114.949 145.07 114.699 144.72 114.609 144.26L114.089 141.48C114.009 141.02 113.739 140.74 113.269 140.65C112.619 140.51 112.349 140.11 112.449 139.44C112.509 139.08 112.409 138.71 112.179 138.44C111.649 137.83 111.399 137.07 111.429 136.17C111.459 135.16 111.079 134.44 110.279 134.02C109.929 133.84 109.639 133.57 109.409 133.23C108.329 131.51 107.929 129.73 106.759 128.12C106.079 127.19 105.629 126.14 105.419 124.98C105.349 124.58 105.169 124.24 104.899 123.94C104.519 123.53 104.149 122.99 103.789 122.32C102.229 119.41 100.409 116.39 98.3091 113.24C98.2191 113.11 98.1891 112.96 98.2191 112.78C98.2791 112.4 98.1692 112.08 97.8892 111.82C96.3892 110.39 95.4491 108.69 95.0591 106.73C94.9591 106.21 94.7292 105.73 94.3892 105.33C93.5892 104.38 92.5691 102.86 91.3391 100.76C90.9691 100.12 90.0591 99.1503 88.6191 97.8703C88.4191 97.6903 88.3192 97.4603 88.3192 97.1903V96.8603C88.3392 96.4603 88.2291 96.0703 87.9891 95.7503C87.2591 94.7703 86.4591 93.8003 85.5891 92.8303C84.6391 91.7703 84.0391 90.7103 83.7991 89.6403C83.4191 87.9503 83.2791 86.3203 83.3691 84.7603C83.3891 84.3603 83.2892 84.0003 83.0692 83.6603L80.4591 79.5903C80.3391 79.4103 80.2892 79.2103 80.2892 79.0003V78.4603C80.2892 78.0803 80.1491 77.7603 79.8691 77.5003C79.0491 76.7703 79.0291 75.8203 78.4991 75.2603C78.4691 75.2303 78.4292 75.2303 78.3892 75.2603C78.0892 75.4903 77.8791 75.4203 77.7791 75.0403C77.7391 74.8603 77.6692 74.6903 77.5692 74.5203C77.3892 74.2003 77.3392 74.2203 77.4192 74.5803C77.4392 74.7003 77.4891 74.8203 77.5591 74.9303C77.8191 75.3503 77.6992 75.5603 77.1992 75.5503C77.0392 75.5503 76.8492 75.4803 76.6292 75.3803L89.3592 44.8003L89.3691 44.7803Z" fill="#41BBE8"/>
<path d="M167.819 245.13L151.919 283.4C151.619 283.52 151.379 283.57 151.199 283.56C150.939 283.56 150.779 283.42 150.729 283.15C150.689 282.89 150.549 282.72 150.309 282.62C149.949 282.47 149.699 282.22 149.559 281.85C148.809 279.93 147.919 278.07 146.899 276.29C146.679 275.89 146.529 275.47 146.469 275.02C146.409 274.61 146.259 274.24 146.009 273.91C143.069 270.02 140.209 265.93 137.439 261.64C137.389 261.57 137.009 261.09 136.299 260.21C135.799 259.58 135.409 258.89 135.129 258.16C134.289 255.94 133.119 253.74 131.619 251.56C130.479 249.9 130.889 248.22 129.809 246.52C125.939 240.37 122.819 234.88 120.449 230.05C120.109 229.36 119.719 228.7 119.289 228.07C119.079 227.76 118.949 227.41 118.889 227.03C118.789 226.35 118.439 225.86 117.839 225.53C117.719 225.47 117.669 225.37 117.669 225.23C117.689 224.22 117.249 223.57 116.319 223.3C116.019 223.22 115.849 223.02 115.799 222.72C115.629 221.63 115.279 220.62 114.769 219.69C112.959 216.43 111.159 213.12 109.369 209.76C108.969 209 108.389 208.4 107.649 207.94C107.429 207.8 107.439 207.68 107.689 207.58C107.849 207.52 107.939 207.37 107.969 207.13C107.989 206.91 107.949 206.7 107.829 206.51C105.589 202.87 103.449 199.09 101.429 195.18C100.979 194.3 100.519 193.45 100.049 192.65C98.6692 190.32 97.4792 187.89 96.4592 185.36C94.6592 180.91 92.7192 177.12 90.6192 174C90.4992 173.81 90.4592 173.61 90.4992 173.39C90.5692 173.04 90.4992 172.72 90.2892 172.43C89.1792 170.84 88.3692 169.08 87.8792 167.16C87.4692 165.57 86.7092 164.02 85.6192 162.52C83.8492 160.08 82.1392 157.2 80.4992 153.89C78.6492 150.15 77.0492 147.27 75.6992 145.26C72.8092 140.94 70.8792 138.04 69.9292 136.57C68.6692 134.6 68.2192 132.43 66.8892 130.49C65.8592 128.99 65.0392 127.16 64.4192 125C64.3292 124.65 64.1492 124.37 63.8892 124.13C63.2792 123.57 62.9092 122.89 62.7892 122.09C62.7192 121.68 62.5392 121.33 62.2292 121.04L58.9392 117.94C58.9392 117.54 59.1692 116.89 59.6092 116.01L76.6392 75.3603C76.8492 75.4703 77.0392 75.5203 77.2092 75.5303C77.6992 75.5303 77.8192 75.3303 77.5692 74.9103C77.4992 74.8003 77.4592 74.6903 77.4292 74.5603C77.3492 74.2003 77.3992 74.1803 77.5792 74.5003C77.6792 74.6603 77.7492 74.8403 77.7892 75.0203C77.8892 75.4003 78.0892 75.4703 78.3992 75.2403C78.4392 75.2103 78.4792 75.2103 78.5092 75.2403C79.0392 75.8003 79.0692 76.7503 79.8792 77.4803C80.1592 77.7403 80.2992 78.0703 80.2992 78.4403V78.9803C80.2992 79.1903 80.3592 79.3903 80.4692 79.5703L83.0792 83.6403C83.2892 83.9803 83.3892 84.3403 83.3792 84.7403C83.2892 86.3103 83.4292 87.9303 83.8092 89.6203C84.0592 90.6903 84.6492 91.7503 85.5992 92.8103C86.4692 93.7703 87.2592 94.7503 87.9992 95.7303C88.2392 96.0503 88.3592 96.4403 88.3292 96.8403V97.1703C88.3292 97.4403 88.4292 97.6703 88.6292 97.8503C90.0692 99.1403 90.9792 100.1 91.3492 100.74C92.5892 102.84 93.5992 104.37 94.3992 105.31C94.7392 105.71 94.9692 106.19 95.0692 106.71C95.4592 108.67 96.3992 110.37 97.8992 111.8C98.1792 112.06 98.2892 112.39 98.2292 112.76C98.1992 112.93 98.2292 113.09 98.3192 113.22C100.409 116.36 102.239 119.39 103.799 122.3C104.159 122.97 104.529 123.51 104.909 123.92C105.179 124.22 105.359 124.56 105.429 124.96C105.639 126.12 106.079 127.17 106.769 128.1C107.929 129.71 108.339 131.49 109.419 133.21C109.639 133.56 109.929 133.82 110.289 134C111.089 134.42 111.469 135.14 111.439 136.15C111.419 137.06 111.669 137.81 112.189 138.42C112.429 138.7 112.519 139.06 112.459 139.42C112.349 140.09 112.619 140.49 113.279 140.63C113.739 140.72 114.009 141 114.099 141.46L114.619 144.24C114.709 144.7 114.959 145.05 115.359 145.28C115.729 145.49 116.189 145.9 116.359 146.29C119.009 152.44 122.139 158.41 125.769 164.21C126.869 165.97 127.759 167.8 128.469 169.7C128.949 171.01 129.759 172.24 130.889 173.4C131.239 173.75 131.379 174.17 131.319 174.66C131.299 174.78 131.299 174.89 131.319 175.01C131.339 175.12 131.389 175.22 131.439 175.32C132.969 178.04 134.539 180.71 136.139 183.32C137.699 185.87 139.149 188.57 140.499 191.44C142.859 196.43 145.379 201.34 148.049 206.17C149.359 208.53 150.609 211.02 151.779 213.64C151.969 214.05 152.239 214.4 152.579 214.68L153.369 215.32C153.759 215.63 153.999 216.03 154.109 216.52C154.539 218.42 154.909 220.13 156.029 221.8C157.509 224.05 159.049 226.37 160.669 228.76C160.909 229.11 161.009 229.49 160.969 229.91C160.899 230.8 161.159 231.56 161.749 232.18C162.239 232.71 162.679 233.32 163.059 234.01C164.279 236.22 165.499 238.43 166.719 240.64C166.809 240.8 166.929 240.95 167.069 241.09C167.259 241.25 167.419 241.23 167.549 241.02C167.869 240.51 168.149 240.53 168.389 241.09C168.449 241.22 168.519 241.35 168.599 241.46C168.859 241.83 168.789 241.89 168.409 241.65C168.119 241.47 167.819 241.44 167.499 241.56C167.089 241.72 166.909 242.03 166.959 242.47C167.059 243.34 167.349 244.21 167.829 245.1L167.819 245.13Z" fill="#4CB0EC"/>
<path d="M151.919 283.39L141.949 307.71L90.3893 307.69C89.8793 307.46 89.2793 307.36 88.5793 307.38C87.7093 307.4 87.6693 307.22 88.4593 306.86L89.0493 306.58C89.5393 306.36 89.6393 306.02 89.3193 305.58C88.7893 304.82 88.3593 304 88.0293 303.12C86.4293 298.77 84.2793 294.11 81.5793 289.14C79.9293 286.11 78.5493 283.78 77.4293 282.14C77.2693 281.9 77.1593 281.65 77.0793 281.37C76.8393 280.51 76.4093 279.78 75.7793 279.18C75.5093 278.92 75.3093 278.6 75.1893 278.23C74.7993 277.04 74.2293 275.83 73.4593 274.59C70.4293 269.68 67.5693 264.57 64.8793 259.27C62.6393 254.84 60.3093 250.59 57.8893 246.5C57.7293 246.22 57.6293 245.92 57.5893 245.6C57.5493 245.28 57.4393 244.99 57.2693 244.72C55.8793 242.53 54.6693 240.35 53.6593 238.19C52.6493 236.01 51.5293 233.79 50.3093 231.54C47.2593 225.92 44.1393 219.67 40.9393 212.78C39.4093 209.47 37.6193 206.42 35.5693 203.63C35.3093 203.27 35.1493 202.86 35.0993 202.42C35.0393 202.01 34.8593 201.66 34.5393 201.38C31.3793 198.61 29.1393 195.68 27.7993 192.6C33.0893 180.15 38.1893 167.79 43.0793 155.52C43.2693 155.05 43.3893 154.57 43.4393 154.07C43.5693 152.69 43.5993 152.18 43.5093 152.56C48.8993 142.33 53.2593 132.56 56.5793 123.23C57.2593 121.28 58.0393 119.52 58.9193 117.93L62.2093 121.03C62.5193 121.32 62.6993 121.67 62.7693 122.08C62.8893 122.88 63.2593 123.56 63.8693 124.12C64.1293 124.35 64.3093 124.64 64.3993 124.99C65.0193 127.15 65.8393 128.98 66.8693 130.48C68.2093 132.42 68.6493 134.6 69.9093 136.56C70.8693 138.04 72.7893 140.93 75.6793 145.25C77.0293 147.26 78.6293 150.14 80.4793 153.88C82.1193 157.19 83.8293 160.07 85.5993 162.51C86.6993 164.01 87.4493 165.56 87.8593 167.15C88.3493 169.07 89.1593 170.83 90.2693 172.42C90.4793 172.72 90.5493 173.04 90.4793 173.38C90.4393 173.59 90.4793 173.8 90.5993 173.99C92.6893 177.11 94.6393 180.9 96.4393 185.35C97.4493 187.88 98.6493 190.31 100.029 192.64C100.499 193.45 100.959 194.29 101.409 195.17C103.439 199.08 105.569 202.85 107.809 206.5C107.929 206.69 107.969 206.9 107.949 207.12C107.919 207.36 107.819 207.51 107.669 207.57C107.419 207.67 107.409 207.79 107.629 207.93C108.369 208.38 108.939 208.99 109.349 209.75C111.149 213.1 112.949 216.41 114.749 219.68C115.259 220.61 115.599 221.62 115.779 222.71C115.829 223.01 115.999 223.21 116.299 223.29C117.219 223.56 117.669 224.2 117.649 225.22C117.649 225.36 117.709 225.46 117.819 225.52C118.419 225.84 118.769 226.34 118.869 227.02C118.929 227.4 119.059 227.75 119.269 228.06C119.709 228.69 120.089 229.35 120.429 230.04C122.799 234.87 125.919 240.36 129.789 246.51C130.869 248.22 130.459 249.9 131.599 251.55C133.099 253.73 134.269 255.94 135.109 258.15C135.389 258.88 135.779 259.57 136.279 260.2C136.989 261.08 137.369 261.56 137.419 261.63C140.189 265.92 143.049 270 145.989 273.9C146.239 274.23 146.389 274.6 146.449 275.01C146.519 275.46 146.659 275.89 146.879 276.28C147.899 278.07 148.789 279.92 149.539 281.84C149.679 282.2 149.929 282.46 150.289 282.61C150.529 282.71 150.669 282.89 150.709 283.14C150.759 283.4 150.919 283.54 151.179 283.55C151.359 283.55 151.599 283.5 151.899 283.39H151.919Z" fill="#59A2F1"/>
<path d="M206.139 155.17L240.089 236.67C239.049 237.35 238.399 238.34 238.139 239.64C237.979 240.42 237.679 240.48 237.229 239.83C237.119 239.67 236.929 239.7 236.659 239.9C236.319 240.16 236.109 240.49 236.019 240.9C235.969 241.13 235.909 241.37 235.849 241.6C235.709 242.05 235.469 242.12 235.149 241.79L234.739 241.38C234.549 241.19 234.469 240.93 234.509 240.68C234.579 240.23 234.389 239.88 233.939 239.65C233.679 239.52 233.649 239.56 233.839 239.79C234.029 240.02 234.019 240.18 233.819 240.27C233.609 240.37 233.419 240.33 233.259 240.16C232.669 239.55 232.209 238.89 231.879 238.18C231.669 237.73 231.469 237.74 231.299 238.2L230.689 239.81C230.639 239.95 230.559 240.07 230.439 240.16C230.139 240.42 229.919 240.43 229.779 240.2C229.429 239.62 229.219 239.67 229.139 240.34C229.069 240.84 228.949 241.34 228.759 241.84C228.549 242.42 228.349 242.41 228.179 241.82C228.109 241.57 228.009 241.55 227.879 241.75C227.579 242.27 227.239 242.3 226.849 241.85C226.519 241.46 226.309 241.02 226.209 240.53C226.139 240.17 225.929 240.07 225.599 240.23C224.989 240.53 224.579 240.35 224.359 239.71C224.299 239.56 224.139 239.48 223.989 239.51C223.839 239.54 223.749 239.64 223.719 239.79C223.609 240.41 223.399 240.45 223.079 239.9C222.679 239.22 222.259 238.55 221.819 237.87C221.729 237.74 221.579 237.67 221.419 237.7C221.279 237.72 221.179 237.8 221.119 237.93C220.859 238.5 220.599 238.5 220.339 237.93C220.249 237.73 220.149 237.54 220.029 237.36C219.439 236.49 219.049 236.56 218.839 237.59L218.309 240.19C218.189 240.76 218.039 240.77 217.839 240.23L217.729 239.91C217.659 239.7 217.519 239.65 217.319 239.74L216.619 240.07C216.469 240.14 216.349 240.1 216.249 239.96L215.249 238.44C214.969 238.01 214.599 237.92 214.149 238.16C213.829 238.32 213.649 238.59 213.619 238.95C213.589 239.45 213.439 239.49 213.169 239.06C212.999 238.77 212.749 238.67 212.439 238.75C212.389 238.75 212.349 238.77 212.299 238.79C212.179 238.82 212.109 238.91 212.099 239.04C212.099 239.21 212.009 239.27 211.839 239.21L211.469 239.07C211.129 238.95 210.919 238.6 210.979 238.24C211.059 237.68 210.929 237.19 210.569 236.78C210.349 236.52 210.119 236.52 209.899 236.78C209.789 236.91 209.759 237.06 209.799 237.21C209.969 237.89 209.829 237.96 209.369 237.42C209.119 237.12 209.009 236.81 209.019 236.49C209.039 236.24 208.979 236.02 208.819 235.83C208.389 235.3 208.239 234.76 208.359 234.21C208.449 233.84 208.449 233.47 208.359 233.1L207.399 229.02C207.379 228.92 207.349 228.86 207.309 228.85C207.159 228.81 207.059 228.83 206.999 228.91C206.759 229.29 206.689 229.26 206.779 228.82C207.099 227.27 207.379 225.71 207.619 224.13C207.639 223.96 207.709 223.8 207.819 223.66C207.849 223.61 207.899 223.58 207.959 223.57C208.459 223.55 208.559 223.33 208.239 222.93C207.899 222.49 207.659 222.02 207.509 221.51C207.369 220.99 207.139 220.95 206.819 221.37C206.729 221.49 206.699 221.61 206.719 221.75C206.859 222.52 206.789 222.54 206.499 221.81C206.429 221.64 206.349 221.47 206.249 221.3C206.139 221.1 205.889 221.03 205.689 221.15C205.669 221.16 205.649 221.18 205.629 221.19C205.469 221.32 205.389 221.48 205.369 221.67C205.319 222.1 205.219 222.11 205.059 221.71C204.769 220.97 204.779 220.24 205.099 219.52C205.159 219.39 205.119 219.29 204.989 219.21C204.049 218.71 203.839 217.87 204.349 216.71C204.509 216.34 204.539 215.96 204.419 215.57C204.249 215 203.999 214.51 203.689 214.11C203.569 213.96 203.609 213.91 203.789 213.96C203.939 214 204.089 213.98 204.259 213.89C204.449 213.77 204.519 213.61 204.459 213.4L203.259 208.54C203.159 208.15 203.159 207.76 203.249 207.37C203.289 207.21 203.309 207.03 203.309 206.85C203.309 206.63 203.219 206.45 203.039 206.33C202.879 206.22 202.759 206.23 202.669 206.34C202.409 206.67 202.139 206.67 201.879 206.33C201.289 205.56 201.139 204.75 201.419 203.89C201.539 203.5 201.539 203.12 201.399 202.73L198.879 196.18C198.639 195.55 197.929 195.23 197.299 195.47C197.079 195.55 196.889 195.7 196.749 195.88C196.529 196.17 196.239 196.34 195.879 196.4C195.439 196.47 195.029 196.17 194.959 195.73C194.959 195.71 194.959 195.7 194.959 195.68C194.789 194.11 194.049 193.06 192.759 192.54C192.229 192.33 192.009 191.94 192.089 191.39C192.299 190.07 191.849 189.66 190.749 190.17L192.039 186.36L204.519 156.82C204.669 156.45 205.099 156.27 205.469 156.42C205.529 156.45 205.589 156.48 205.639 156.52C206.059 156.85 206.229 156.39 206.149 155.15L206.139 155.17Z" fill="#41BBE8"/>
<path d="M240.089 236.67C241.559 240.27 243.049 243.84 244.569 247.38C246.549 252 247.839 255.62 248.449 258.24C251.209 270.05 249.339 280.69 242.819 290.16C237.399 298.04 230.229 303.32 221.309 306.01C212.889 308.56 201.089 307.79 191.459 307.73C190.089 306.53 188.969 305.15 188.099 303.58C187.899 303.22 187.819 302.83 187.849 302.42C187.959 301.05 187.739 299.73 187.189 298.45C186.919 297.81 186.739 297.83 186.659 298.52L186.539 299.58C186.449 300.31 186.279 300.32 186.049 299.63C185.469 297.95 185.529 296.11 186.239 294.1C186.489 293.38 186.429 292.74 186.079 292.16C185.599 291.4 185.089 290.58 184.549 289.7C184.249 289.21 184.169 288.7 184.339 288.15C184.499 287.63 184.449 287.13 184.199 286.65L182.899 284.16C182.859 284.09 182.799 284.03 182.709 283.99C182.569 283.93 182.459 283.95 182.389 284.04C182.269 284.19 182.219 284.17 182.239 283.98C182.349 283.09 182.109 282.29 181.519 281.57C181.419 281.45 181.449 281.38 181.589 281.34C182.419 281.11 182.789 280.52 182.699 279.58C182.609 278.71 182.789 278.65 183.259 279.39C183.389 279.6 183.469 279.84 183.479 280.09C183.499 280.55 183.719 280.67 184.119 280.45C184.999 279.97 185.429 279.32 185.409 278.48C185.409 278.25 185.339 278.03 185.219 277.82C185.099 277.6 184.959 277.38 184.799 277.18C184.529 276.83 184.449 276.43 184.549 275.99C184.809 274.94 185.069 273.9 185.329 272.86C185.509 272.12 185.299 271.57 184.689 271.23C184.479 271.11 184.379 270.93 184.409 270.67C184.479 270.06 184.269 269.57 183.769 269.19C183.409 268.92 183.149 268.99 182.989 269.41C182.929 269.57 182.799 269.65 182.609 269.67C182.099 269.7 181.889 269.47 181.989 268.98C182.109 268.39 181.929 267.93 181.459 267.58C181.329 267.48 181.179 267.42 181.009 267.41C180.829 267.39 180.719 267.46 180.679 267.64C180.609 268.01 180.439 268.06 180.189 267.78C179.269 266.77 178.989 265.72 179.369 264.6C179.649 263.77 179.379 263.19 178.569 262.87C178.269 262.75 178.169 262.54 178.259 262.24C178.419 261.65 178.269 261.19 177.799 260.84C177.729 260.79 177.659 260.72 177.609 260.64L175.549 256.83C175.149 256.08 174.919 256.13 174.859 256.98C174.859 257.23 174.859 257.47 174.899 257.71C174.999 258.34 174.929 258.36 174.689 257.77C174.529 257.37 174.259 257.1 173.889 256.94C173.449 256.76 173.319 256.45 173.489 256.01C174.069 254.49 174.379 252.99 174.419 251.52C174.419 251.35 174.329 251.2 174.189 251.11C174.069 251.04 173.949 251.02 173.829 251.06C173.279 251.27 173.049 251.09 173.149 250.53C173.279 249.8 173.419 249.09 173.569 248.42C173.649 248.09 173.599 247.74 173.419 247.44L171.499 244.23C171.299 243.91 171.369 243.66 171.699 243.48C172.209 243.21 172.309 242.83 171.999 242.34C171.519 241.61 170.729 241.04 169.629 240.62L181.729 211.6L190.759 190.15C191.859 189.65 192.299 190.06 192.099 191.37C192.019 191.92 192.239 192.31 192.769 192.52C194.059 193.04 194.799 194.09 194.969 195.66C195.009 196.1 195.399 196.43 195.849 196.38C195.869 196.38 195.879 196.38 195.899 196.38C196.249 196.32 196.539 196.15 196.769 195.86C197.169 195.32 197.939 195.21 198.479 195.61C198.669 195.75 198.809 195.94 198.889 196.16L201.409 202.71C201.549 203.1 201.559 203.48 201.429 203.87C201.149 204.73 201.299 205.54 201.889 206.31C202.149 206.65 202.419 206.65 202.679 206.32C202.769 206.2 202.889 206.2 203.049 206.31C203.229 206.43 203.319 206.61 203.319 206.83C203.319 207.01 203.299 207.18 203.259 207.35C203.169 207.75 203.169 208.14 203.269 208.52L204.469 213.38C204.529 213.59 204.469 213.76 204.269 213.87C204.109 213.96 203.949 213.99 203.799 213.94C203.619 213.89 203.589 213.94 203.699 214.09C204.009 214.49 204.259 214.98 204.429 215.55C204.549 215.94 204.519 216.32 204.359 216.69C203.849 217.85 204.059 218.68 204.999 219.19C205.129 219.26 205.169 219.37 205.109 219.5C204.799 220.22 204.779 220.95 205.069 221.69C205.229 222.09 205.329 222.08 205.379 221.65C205.399 221.46 205.479 221.3 205.639 221.17C205.809 221.02 206.069 221.05 206.209 221.22C206.229 221.24 206.239 221.26 206.249 221.28C206.349 221.44 206.429 221.61 206.499 221.79C206.789 222.52 206.859 222.49 206.719 221.73C206.699 221.59 206.719 221.46 206.819 221.35C207.139 220.92 207.369 220.97 207.509 221.49C207.659 222 207.899 222.47 208.239 222.91C208.549 223.31 208.459 223.53 207.959 223.55C207.899 223.55 207.859 223.59 207.819 223.64C207.709 223.78 207.649 223.94 207.619 224.11C207.379 225.68 207.099 227.25 206.779 228.8C206.689 229.24 206.759 229.27 206.999 228.89C207.059 228.81 207.159 228.79 207.309 228.83C207.339 228.85 207.369 228.9 207.399 229L208.359 233.08C208.449 233.45 208.449 233.82 208.359 234.19C208.239 234.74 208.389 235.28 208.819 235.81C208.979 236 209.039 236.22 209.019 236.47C208.999 236.79 209.119 237.1 209.369 237.4C209.829 237.94 209.979 237.87 209.799 237.19C209.759 237.03 209.799 236.89 209.899 236.76C210.119 236.5 210.349 236.5 210.569 236.76C210.919 237.17 211.059 237.66 210.979 238.22C210.919 238.58 211.129 238.93 211.469 239.05L211.839 239.19C211.999 239.25 212.089 239.19 212.099 239.02C212.099 238.89 212.169 238.81 212.299 238.77C212.339 238.75 212.389 238.74 212.439 238.73C212.749 238.65 212.999 238.75 213.169 239.04C213.429 239.47 213.579 239.43 213.619 238.93C213.649 238.57 213.829 238.3 214.149 238.14C214.599 237.9 214.969 238 215.249 238.42L216.249 239.94C216.349 240.08 216.469 240.12 216.619 240.05L217.319 239.72C217.519 239.63 217.649 239.69 217.729 239.89L217.839 240.21C218.039 240.75 218.189 240.74 218.309 240.17L218.839 237.57C219.049 236.54 219.439 236.46 220.029 237.34C220.149 237.52 220.249 237.71 220.339 237.91C220.599 238.48 220.859 238.48 221.119 237.91C221.179 237.78 221.279 237.7 221.419 237.68C221.569 237.66 221.719 237.72 221.819 237.85C222.269 238.53 222.689 239.2 223.079 239.88C223.399 240.42 223.619 240.39 223.719 239.77C223.749 239.61 223.839 239.52 223.989 239.49C224.149 239.45 224.299 239.54 224.359 239.69C224.569 240.33 224.989 240.51 225.599 240.21C225.929 240.05 226.129 240.14 226.209 240.51C226.309 241 226.519 241.45 226.849 241.83C227.239 242.28 227.579 242.25 227.879 241.73C227.999 241.53 228.099 241.56 228.179 241.8C228.349 242.39 228.549 242.4 228.759 241.82C228.949 241.33 229.079 240.83 229.139 240.32C229.219 239.65 229.439 239.61 229.779 240.18C229.919 240.41 230.139 240.4 230.439 240.14C230.549 240.05 230.639 239.93 230.689 239.79L231.299 238.18C231.469 237.72 231.669 237.71 231.879 238.16C232.219 238.87 232.679 239.53 233.259 240.14C233.419 240.31 233.599 240.35 233.819 240.25C234.029 240.16 234.029 240 233.839 239.77C233.649 239.55 233.679 239.5 233.939 239.63C234.389 239.86 234.569 240.2 234.509 240.66C234.469 240.92 234.559 241.18 234.739 241.36L235.149 241.77C235.479 242.1 235.709 242.04 235.849 241.58C235.919 241.34 235.969 241.11 236.019 240.88C236.109 240.47 236.319 240.13 236.659 239.88C236.929 239.67 237.119 239.65 237.229 239.81C237.679 240.47 237.989 240.41 238.139 239.62C238.399 238.33 239.049 237.34 240.089 236.65V236.67Z" fill="#4E8DD2"/>
<path d="M27.9293 192.72C29.2693 195.8 31.5093 198.73 34.6693 201.5C34.9793 201.78 35.1693 202.13 35.2293 202.54C35.2793 202.99 35.4393 203.39 35.6993 203.75C37.7393 206.54 39.5293 209.59 41.0693 212.9C44.2693 219.78 47.3893 226.03 50.4393 231.66C51.6593 233.91 52.7793 236.13 53.7893 238.31C54.7993 240.47 56.0093 242.65 57.3993 244.84C57.5693 245.1 57.6793 245.4 57.7193 245.72C57.7493 246.04 57.8493 246.34 58.0193 246.62C60.4393 250.71 62.7593 254.97 65.0093 259.39C67.6993 264.69 70.5593 269.8 73.5893 274.71C74.3593 275.95 74.9293 277.16 75.3193 278.35C75.4393 278.72 75.6393 279.04 75.9093 279.3C76.5393 279.9 76.9693 280.63 77.2093 281.49C77.2793 281.76 77.3993 282.02 77.5593 282.26C78.6793 283.9 80.0693 286.23 81.7093 289.26C84.4093 294.23 86.5593 298.89 88.1593 303.24C88.4893 304.12 88.9193 304.94 89.4493 305.7C89.7593 306.15 89.6693 306.48 89.1793 306.7L88.5893 306.98C87.7993 307.34 87.8393 307.52 88.7093 307.5C89.3993 307.48 89.9993 307.58 90.5193 307.81C76.3793 307.85 62.2393 307.89 48.1093 307.93C40.8493 307.94 31.7893 307.83 25.3393 305C12.2293 299.26 4.11928 289.94 1.02928 277.05C-0.860721 269.16 -0.080725 261 3.36928 252.56C11.5793 232.46 19.7693 212.51 27.9493 192.73L27.9293 192.72Z" fill="#7387FA"/>
<path d="M169.609 240.65C170.709 241.07 171.509 241.64 171.979 242.37C172.289 242.86 172.189 243.24 171.679 243.51C171.349 243.69 171.279 243.94 171.479 244.26L173.399 247.47C173.569 247.76 173.629 248.11 173.549 248.45C173.399 249.13 173.259 249.83 173.129 250.56C173.029 251.12 173.259 251.3 173.809 251.09C173.929 251.05 174.039 251.07 174.169 251.14C174.319 251.22 174.409 251.38 174.399 251.55C174.359 253.02 174.049 254.51 173.469 256.04C173.299 256.48 173.429 256.79 173.869 256.97C174.239 257.13 174.509 257.4 174.669 257.8C174.909 258.39 174.979 258.36 174.879 257.74C174.849 257.5 174.829 257.26 174.839 257.01C174.899 256.16 175.129 256.11 175.529 256.86L177.589 260.67C177.639 260.75 177.699 260.82 177.779 260.87C178.249 261.22 178.399 261.68 178.239 262.27C178.149 262.58 178.249 262.79 178.549 262.9C179.369 263.22 179.629 263.8 179.349 264.63C178.969 265.74 179.239 266.8 180.169 267.81C180.429 268.09 180.589 268.04 180.659 267.67C180.699 267.49 180.809 267.41 180.989 267.44C181.149 267.46 181.299 267.51 181.439 267.61C181.909 267.96 182.089 268.42 181.969 269.01C181.869 269.5 182.079 269.74 182.589 269.7C182.789 269.68 182.919 269.6 182.969 269.44C183.129 269.02 183.389 268.95 183.749 269.22C184.249 269.6 184.469 270.09 184.389 270.7C184.369 270.96 184.459 271.14 184.669 271.26C185.279 271.61 185.489 272.15 185.309 272.89C185.049 273.93 184.789 274.97 184.529 276.02C184.419 276.46 184.509 276.85 184.779 277.21C184.939 277.42 185.079 277.63 185.199 277.85C185.319 278.06 185.379 278.27 185.389 278.51C185.409 279.34 184.989 280 184.099 280.48C183.699 280.7 183.479 280.58 183.459 280.12C183.439 279.86 183.369 279.63 183.239 279.42C182.779 278.68 182.589 278.74 182.679 279.61C182.769 280.55 182.399 281.13 181.569 281.37C181.419 281.41 181.399 281.49 181.499 281.6C182.089 282.32 182.319 283.12 182.219 284.01C182.199 284.2 182.239 284.22 182.369 284.07C182.439 283.98 182.549 283.96 182.689 284.02C182.769 284.06 182.829 284.12 182.879 284.19L184.179 286.68C184.429 287.16 184.469 287.66 184.319 288.18C184.159 288.72 184.229 289.24 184.529 289.73C185.069 290.61 185.589 291.43 186.059 292.19C186.409 292.77 186.469 293.41 186.219 294.13C185.519 296.13 185.459 297.98 186.029 299.66C186.269 300.35 186.429 300.34 186.519 299.61L186.639 298.55C186.719 297.86 186.899 297.83 187.169 298.48C187.709 299.76 187.929 301.08 187.829 302.45C187.799 302.86 187.879 303.25 188.079 303.61C188.949 305.18 190.069 306.57 191.439 307.76H141.929L151.899 283.43L167.799 245.16L169.589 240.68L169.609 240.65Z" fill="#4867AC"/>
</svg>
